<svg width="38" height="47" viewBox="0 0 38 47" fill="none" xmlns="http://www.w3.org/2000/svg">
<path id="Icon" fill-rule="evenodd" clip-rule="evenodd" d="M23.3544 3.09511e-05H5.55L5.5179 3.07127e-05C4.70506 2.33217e-05 4.04944 1.73613e-05 3.51853 0.0433943C2.9719 0.0880563 2.49175 0.182416 2.04754 0.408756C1.34193 0.768282 0.768251 1.34196 0.408726 2.04757C0.182385 2.49179 0.0880258 2.97193 0.0433638 3.51856C-1.31592e-05 4.04947 -7.19876e-06 4.70509 1.92214e-07 5.51793L4.30633e-07 5.55003V41.4045L1.92214e-07 41.4366C-7.19876e-06 42.2494 -1.31592e-05 42.9051 0.0433638 43.436C0.0880258 43.9826 0.182385 44.4627 0.408726 44.907C0.768251 45.6126 1.34193 46.1862 2.04754 46.5458C2.49176 46.7721 2.9719 46.8665 3.51853 46.9111C4.04937 46.9545 4.70487 46.9545 5.51755 46.9545H5.51763H5.51771H5.5178H5.51788H5.55001H32.279H32.3111H32.3112H32.3113H32.3114H32.3115C33.1242 46.9545 33.7797 46.9545 34.3105 46.9111C34.8571 46.8665 35.3373 46.7721 35.7815 46.5458C36.4871 46.1862 37.0608 45.6126 37.4203 44.907C37.6466 44.4627 37.741 43.9826 37.7857 43.436C37.829 42.9051 37.829 42.2496 37.829 41.4369V41.4369V41.4368V41.4367V41.4366V41.4045V14.1265H27.3044H27.274C26.7398 14.1265 26.294 14.1265 25.9297 14.0968C25.5498 14.0658 25.1932 13.9986 24.8559 13.8268C24.3385 13.5631 23.9178 13.1424 23.6541 12.625C23.4823 12.2877 23.4151 11.9311 23.3841 11.5512C23.3544 11.187 23.3544 10.7411 23.3544 10.207V10.1765V3.09511e-05ZM37.829 12.6265C37.8285 12.0493 37.8203 11.6303 37.7218 11.2273C37.6268 10.8384 37.47 10.4673 37.2576 10.1279C37.0172 9.74388 36.6879 9.42361 36.2122 8.96092L36.2121 8.96088L36.1497 8.90014L28.6199 1.57255L28.5599 1.51408C28.1017 1.06796 27.7845 0.759136 27.4093 0.534111C27.0777 0.33523 26.7174 0.188829 26.341 0.1001C25.92 0.000827269 25.4824 -0.000157042 24.8544 9.25504e-06V10.1765C24.8544 10.749 24.855 11.1332 24.8791 11.4291C24.9026 11.7162 24.9445 11.8535 24.9906 11.944C25.1105 12.1792 25.3017 12.3704 25.5369 12.4903C25.6274 12.5364 25.7647 12.5783 26.0518 12.6018C26.3477 12.6259 26.7319 12.6265 27.3044 12.6265H37.829ZM26.699 24.2275H11.1295V22.7275H26.699V24.2275ZM11.1295 34.3285H21.5092V32.8285H11.1295V34.3285Z" fill="#C9CBFF"/>
</svg>
