<svg width="24" height="24" viewBox="0 0 24 24" fill="none" xmlns="http://www.w3.org/2000/svg">
<g id="summer">
<path id="Vector" d="M13.4505 1.67999L14.7104 3.17999C14.9058 3.4121 15.1539 3.59404 15.434 3.71061C15.7141 3.82717 16.0181 3.87497 16.3204 3.84999L18.3204 3.67999C18.5881 3.66064 18.8567 3.6991 19.1081 3.79277C19.3596 3.88644 19.5879 4.03311 19.7776 4.22283C19.9673 4.41256 20.114 4.64088 20.2077 4.89231C20.3013 5.14374 20.3398 5.41238 20.3204 5.67999L20.1504 7.67999C20.1255 7.98235 20.1733 8.2863 20.2898 8.5664C20.4064 8.8465 20.5883 9.09462 20.8204 9.28999L22.3204 10.55C22.5342 10.7264 22.7063 10.9478 22.8244 11.1985C22.9426 11.4492 23.0038 11.7229 23.0038 12C23.0038 12.2771 22.9426 12.5508 22.8244 12.8015C22.7063 13.0522 22.5342 13.2736 22.3204 13.45L20.8204 14.71C20.5883 14.9054 20.4064 15.1535 20.2898 15.4336C20.1733 15.7137 20.1255 16.0176 20.1504 16.32L20.3204 18.32C20.3398 18.5876 20.3013 18.8562 20.2077 19.1077C20.114 19.3591 19.9673 19.5874 19.7776 19.7772C19.5879 19.9669 19.3596 20.1135 19.1081 20.2072C18.8567 20.3009 18.5881 20.3393 18.3204 20.32L16.3204 20.15C16.0181 20.125 15.7141 20.1728 15.434 20.2894C15.1539 20.4059 14.9058 20.5879 14.7104 20.82L13.4505 22.32C13.2741 22.5337 13.0526 22.7058 12.8019 22.824C12.5513 22.9421 12.2776 23.0034 12.0005 23.0034C11.7233 23.0034 11.4496 22.9421 11.199 22.824C10.9483 22.7058 10.7268 22.5337 10.5505 22.32L9.29045 20.82C9.09508 20.5879 8.84696 20.4059 8.56686 20.2894C8.28675 20.1728 7.98281 20.125 7.68045 20.15L5.68045 20.32C5.41284 20.3393 5.1442 20.3009 4.89277 20.2072C4.64134 20.1135 4.41301 19.9669 4.22329 19.7772C4.03357 19.5874 3.88689 19.3591 3.79323 19.1077C3.69956 18.8562 3.6611 18.5876 3.68045 18.32L3.85045 16.32C3.87543 16.0176 3.82763 15.7137 3.71107 15.4336C3.5945 15.1535 3.41256 14.9054 3.18045 14.71L1.68045 13.45C1.46671 13.2736 1.29462 13.0522 1.17648 12.8015C1.05833 12.5508 0.99707 12.2771 0.99707 12C0.99707 11.7229 1.05833 11.4492 1.17648 11.1985C1.29462 10.9478 1.46671 10.7264 1.68045 10.55L3.18045 9.28999C3.41256 9.09462 3.5945 8.8465 3.71107 8.5664C3.82763 8.2863 3.87543 7.98235 3.85045 7.67999L3.68045 5.67999C3.6611 5.41238 3.69956 5.14374 3.79323 4.89231C3.88689 4.64088 4.03357 4.41256 4.22329 4.22283C4.41301 4.03311 4.64134 3.88644 4.89277 3.79277C5.1442 3.6991 5.41284 3.66064 5.68045 3.67999L7.68045 3.84999C7.98281 3.87497 8.28675 3.82717 8.56686 3.71061C8.84696 3.59404 9.09508 3.4121 9.29045 3.17999L10.5505 1.67999C10.7268 1.46626 10.9483 1.29416 11.199 1.17602C11.4496 1.05788 11.7233 0.996613 12.0005 0.996613C12.2776 0.996613 12.5513 1.05788 12.8019 1.17602C13.0526 1.29416 13.2741 1.46626 13.4505 1.67999V1.67999Z" stroke="#22272F" stroke-width="2" stroke-linecap="round" stroke-linejoin="round"/>
<path id="Vector_2" d="M12 17C14.7614 17 17 14.7614 17 12C17 9.23858 14.7614 7 12 7C9.23858 7 7 9.23858 7 12C7 14.7614 9.23858 17 12 17Z" stroke="#22272F" stroke-width="2" stroke-linecap="round" stroke-linejoin="round"/>
</g>
</svg>
